<?xml version="1.0" encoding="utf-8"?>
<!-- Generator: Adobe Illustrator 14.0.0, SVG Export Plug-In  -->
<!DOCTYPE svg PUBLIC "-//W3C//DTD SVG 1.1//EN" "http://www.w3.org/Graphics/SVG/1.1/DTD/svg11.dtd" [
	<!ENTITY ns_flows "http://ns.adobe.com/Flows/1.0/">
]>
<svg version="1.1"
	 xmlns="http://www.w3.org/2000/svg" xmlns:xlink="http://www.w3.org/1999/xlink" xmlns:a="http://ns.adobe.com/AdobeSVGViewerExtensions/3.0/"
	 x="0px" y="0px" width="244px" height="65px" viewBox="-2.462 -3.085 244 65" enable-background="new -2.462 -3.085 244 65"
	 xml:space="preserve">
<defs>
</defs>
<path id="YouTube_1_" fill="#B5B5B5" d="M223.437,45.036h-3.018l0.014-1.751c0-0.777,0.639-1.413,1.418-1.413h0.191
	c0.783,0,1.426,0.636,1.426,1.413L223.437,45.036z M212.134,41.285c-0.77,0-1.393,0.515-1.393,1.142v8.513
	c0,0.626,0.623,1.137,1.393,1.137c0.764,0,1.393-0.511,1.393-1.137v-8.513C213.526,41.8,212.897,41.285,212.134,41.285z
	 M230.483,36.528v16.188c0,3.884-3.367,7.06-7.486,7.06h-30.775c-4.117,0-7.484-3.176-7.484-7.06V36.528
	c0-3.884,3.367-7.065,7.484-7.065h30.775C227.116,29.463,230.483,32.645,230.483,36.528z M194.276,54.474V37.419h3.812v-2.525
	l-10.168-0.017v2.486l3.174,0.01v17.101H194.276z M205.714,39.96h-3.182v9.107c0,1.312,0.078,1.979-0.008,2.211
	c-0.258,0.705-1.42,1.447-1.873,0.072c-0.072-0.242-0.006-0.971-0.008-2.224l-0.012-9.167h-3.168l0.01,9.023
	c0.002,1.384-0.029,2.417,0.012,2.889c0.082,0.828,0.053,1.789,0.818,2.34c1.432,1.03,4.172-0.153,4.855-1.622l-0.006,1.873
	l2.561,0.007V39.96z M215.886,50.389l-0.006-7.582c0-2.887-2.164-4.617-5.1-2.281l0.018-5.632l-3.184,0.002l-0.012,19.446
	l2.609-0.032l0.238-1.217C213.792,56.163,215.892,54.059,215.886,50.389z M225.839,49.382l-2.383,0.01
	c-0.002,0.098-0.008,0.208-0.008,0.33v1.324c0,0.721-0.588,1.296-1.301,1.296h-0.469c-0.715,0-1.303-0.575-1.303-1.296v-0.145
	v-1.463v-1.89h5.461v-2.06c0-1.498-0.039-2.999-0.162-3.859c-0.393-2.715-4.203-3.144-6.131-1.754
	c-0.605,0.431-1.066,1.018-1.336,1.792c-0.273,0.783-0.404,1.853-0.404,3.204v4.52C217.804,56.908,226.927,55.844,225.839,49.382z
	 M213.606,24.847c0.164,0.398,0.422,0.727,0.768,0.966c0.336,0.241,0.775,0.36,1.299,0.36c0.461,0,0.865-0.124,1.219-0.375
	c0.354-0.254,0.648-0.637,0.893-1.141l-0.059,1.242h3.545V10.826h-2.793v11.73c0,0.636-0.521,1.155-1.16,1.155
	s-1.164-0.52-1.164-1.155v-11.73h-2.912v10.166c0,1.301,0.021,2.159,0.061,2.598C213.341,24.023,213.446,24.447,213.606,24.847z
	 M202.864,16.334c0-1.45,0.121-2.579,0.361-3.394c0.238-0.811,0.674-1.462,1.301-1.958c0.625-0.491,1.428-0.737,2.408-0.737
	c0.818,0,1.521,0.152,2.107,0.473c0.586,0.316,1.041,0.729,1.355,1.235c0.322,0.512,0.543,1.035,0.658,1.571
	c0.123,0.538,0.182,1.365,0.182,2.47v3.812c0,1.398-0.059,2.43-0.168,3.078c-0.107,0.656-0.338,1.261-0.697,1.839
	c-0.352,0.559-0.812,0.979-1.365,1.251c-0.559,0.271-1.199,0.404-1.92,0.404c-0.814,0-1.492-0.111-2.053-0.348
	c-0.564-0.233-0.994-0.58-1.309-1.04c-0.312-0.466-0.531-1.038-0.666-1.695c-0.129-0.66-0.195-1.65-0.195-2.97V16.334z
	 M205.64,22.32c0,0.854,0.633,1.556,1.408,1.556c0.777,0,1.408-0.701,1.408-1.556v-8.024c0-0.855-0.631-1.548-1.408-1.548
	c-0.775,0-1.408,0.692-1.408,1.548V22.32z M195.829,26.376h3.34l0.008-11.564l3.955-9.909h-3.662l-2.1,7.362l-2.131-7.378h-3.619
	l4.199,9.928L195.829,26.376z"/>
<path id="Twitter__x28_alt_x29__1_" fill="#B5B5B5" d="M133.218,33.749c3.357-0.279,5.629-1.806,6.506-3.869
	c-1.213,0.742-4.969,1.551-7.043,0.777c-0.102-0.483-0.211-0.943-0.328-1.365c-1.578-5.806-6.992-10.48-12.66-9.916
	c0.459-0.187,0.922-0.359,1.385-0.512c0.623-0.229,4.289-0.824,3.707-2.119c-0.48-1.129-4.959,0.861-5.803,1.125
	c1.115-0.418,2.953-1.138,3.152-2.414c-1.705,0.232-3.377,1.038-4.668,2.21c0.469-0.502,0.822-1.118,0.896-1.776
	c-4.549,2.906-7.201,8.761-9.351,14.438c-1.689-1.638-3.178-2.922-4.52-3.639c-3.766-2.019-8.264-4.123-15.331-6.748
	c-0.214,2.34,1.153,5.443,5.108,7.515c-0.857-0.114-2.422,0.14-3.673,0.438c0.507,2.679,2.174,4.884,6.691,5.953
	c-2.061,0.135-3.131,0.603-4.097,1.616c0.941,1.864,3.236,4.056,7.353,3.604c-4.58,1.975-1.863,5.635,1.861,5.085
	c-6.359,6.572-16.39,6.089-22.154,0.595c15.041,20.494,47.733,12.118,52.608-7.62c3.65,0.031,5.795-1.262,7.129-2.692
	C137.88,34.788,134.829,34.422,133.218,33.749z"/>
<path id="Facebook_1_" fill="#B5B5B5" d="M5.538,10.637c0,1.38,0,7.554,0,7.554H0v9.238h5.538v27.464h11.374V27.429h7.633
	c0,0,0.711-4.431,1.06-9.273c-0.993,0-8.651,0-8.651,0s0-5.375,0-6.316c0-0.947,1.239-2.216,2.468-2.216c1.222,0,3.807,0,6.195,0
	c0-1.259,0-5.604,0-9.623c-3.192,0-6.821,0-8.424,0C5.258,0,5.538,9.251,5.538,10.637z"/>
</svg>
