<?xml version="1.0" encoding="utf-8"?>
<!-- Generator: Adobe Illustrator 14.0.0, SVG Export Plug-In  -->
<!DOCTYPE svg PUBLIC "-//W3C//DTD SVG 1.1//EN" "http://www.w3.org/Graphics/SVG/1.1/DTD/svg11.dtd" [
	<!ENTITY ns_flows "http://ns.adobe.com/Flows/1.0/">
]>
<svg version="1.1"
	 xmlns="http://www.w3.org/2000/svg" xmlns:xlink="http://www.w3.org/1999/xlink" xmlns:a="http://ns.adobe.com/AdobeSVGViewerExtensions/3.0/"
	 x="0px" y="0px" width="93px" height="37px" viewBox="-8.6 -4.3 93 37" enable-background="new -8.6 -4.3 93 37"
	 xml:space="preserve">
<defs>
</defs>
<path id="YouTube_2_" fill="#B5B6B6" d="M75.1,20.5h-1.4l0-0.8c0-0.4,0.3-0.6,0.6-0.6h0.1c0.4,0,0.6,0.3,0.6,0.6L75.1,20.5z
	 M70,18.8c-0.3,0-0.6,0.2-0.6,0.5v3.9c0,0.3,0.3,0.5,0.6,0.5c0.3,0,0.6-0.2,0.6-0.5v-3.9C70.6,19,70.4,18.8,70,18.8z M78.3,16.6v7.4
	c0,1.8-1.5,3.2-3.4,3.2H61c-1.9,0-3.4-1.4-3.4-3.2v-7.4c0-1.8,1.5-3.2,3.4-3.2h14C76.8,13.4,78.3,14.8,78.3,16.6z M61.9,24.7V17h1.7
	v-1.1l-4.6,0V17l1.4,0v7.8H61.9z M67.1,18.2h-1.4v4.1c0,0.6,0,0.9,0,1c-0.1,0.3-0.6,0.7-0.9,0c0-0.1,0-0.4,0-1l0-4.2h-1.4l0,4.1
	c0,0.6,0,1.1,0,1.3c0,0.4,0,0.8,0.4,1.1c0.7,0.5,1.9-0.1,2.2-0.7l0,0.9l1.2,0V18.2L67.1,18.2z M71.7,22.9l0-3.4c0-1.3-1-2.1-2.3-1
	l0-2.6l-1.4,0l0,8.8l1.2,0l0.1-0.6C70.8,25.5,71.7,24.6,71.7,22.9z M76.2,22.4l-1.1,0c0,0,0,0.1,0,0.1v0.6c0,0.3-0.3,0.6-0.6,0.6
	h-0.2c-0.3,0-0.6-0.3-0.6-0.6v-0.1v-0.7v-0.9h2.5v-0.9c0-0.7,0-1.4-0.1-1.8c-0.2-1.2-1.9-1.4-2.8-0.8c-0.3,0.2-0.5,0.5-0.6,0.8
	c-0.1,0.4-0.2,0.8-0.2,1.5v2.1C72.6,25.8,76.7,25.4,76.2,22.4z M70.7,11.3c0.1,0.2,0.2,0.3,0.3,0.4c0.2,0.1,0.4,0.2,0.6,0.2
	c0.2,0,0.4-0.1,0.6-0.2c0.2-0.1,0.3-0.3,0.4-0.5l0,0.6h1.6V4.9h-1.3v5.3c0,0.3-0.2,0.5-0.5,0.5c-0.3,0-0.5-0.2-0.5-0.5V4.9h-1.3v4.6
	c0,0.6,0,1,0,1.2C70.6,10.9,70.6,11.1,70.7,11.3z M65.8,7.4c0-0.7,0.1-1.2,0.2-1.5c0.1-0.4,0.3-0.7,0.6-0.9c0.3-0.2,0.6-0.3,1.1-0.3
	c0.4,0,0.7,0.1,1,0.2c0.3,0.1,0.5,0.3,0.6,0.6c0.1,0.2,0.2,0.5,0.3,0.7c0.1,0.2,0.1,0.6,0.1,1.1V9c0,0.6,0,1.1-0.1,1.4
	c0,0.3-0.2,0.6-0.3,0.8c-0.2,0.3-0.4,0.4-0.6,0.6C68.3,11.9,68,12,67.7,12c-0.4,0-0.7-0.1-0.9-0.2c-0.3-0.1-0.5-0.3-0.6-0.5
	c-0.1-0.2-0.2-0.5-0.3-0.8c-0.1-0.3-0.1-0.7-0.1-1.3V7.4L65.8,7.4z M67.1,10.1c0,0.4,0.3,0.7,0.6,0.7s0.6-0.3,0.6-0.7V6.5
	c0-0.4-0.3-0.7-0.6-0.7s-0.6,0.3-0.6,0.7V10.1z M62.6,12h1.5l0-5.3l1.8-4.5h-1.7l-1,3.3l-1-3.4h-1.6l1.9,4.5L62.6,12z"/>
<path id="Twitter__x28_alt_x29__2_" fill="#B5B6B6" d="M46.2,13.1c1.5-0.1,2.6-0.8,3-1.8c-0.6,0.3-2.3,0.7-3.2,0.4
	c0-0.2-0.1-0.4-0.1-0.6c-0.7-2.6-3.2-4.8-5.8-4.5c0.2-0.1,0.4-0.2,0.6-0.2c0.3-0.1,1.9-0.4,1.7-1c-0.2-0.5-2.3,0.4-2.6,0.5
	c0.5-0.2,1.3-0.5,1.4-1.1c-0.8,0.1-1.5,0.5-2.1,1c0.2-0.2,0.4-0.5,0.4-0.8c-2.1,1.3-3.3,4-4.2,6.6c-0.8-0.7-1.4-1.3-2.1-1.7
	c-1.7-0.9-3.8-1.9-7-3.1c-0.1,1.1,0.5,2.5,2.3,3.4c-0.4-0.1-1.1,0.1-1.7,0.2c0.2,1.2,1,2.2,3,2.7c-0.9,0.1-1.4,0.3-1.9,0.7
	c0.4,0.8,1.5,1.8,3.3,1.6c-2.1,0.9-0.8,2.6,0.8,2.3c-2.9,3-7.4,2.8-10.1,0.3c6.8,9.3,21.7,5.5,23.9-3.5c1.7,0,2.6-0.6,3.2-1.2
	C48.4,13.6,47,13.4,46.2,13.1z"/>
<path id="Facebook_2_" fill="#B5B6B6" d="M2.5,4.8c0,0.6,0,3.4,0,3.4H0v4.2h2.5v12.5h5.2V12.5h3.5c0,0,0.3-2,0.5-4.2
	c-0.5,0-3.9,0-3.9,0s0-2.4,0-2.9c0-0.4,0.6-1,1.1-1c0.6,0,1.7,0,2.8,0c0-0.6,0-2.5,0-4.4c-1.5,0-3.1,0-3.8,0C2.4,0,2.5,4.2,2.5,4.8z
	"/>
</svg>
