<?xml version="1.0" encoding="utf-8"?>
<!-- Generator: Adobe Illustrator 14.0.0, SVG Export Plug-In  -->
<!DOCTYPE svg PUBLIC "-//W3C//DTD SVG 1.1//EN" "http://www.w3.org/Graphics/SVG/1.1/DTD/svg11.dtd" [
	<!ENTITY ns_flows "http://ns.adobe.com/Flows/1.0/">
]>
<svg version="1.1"
	 xmlns="http://www.w3.org/2000/svg" xmlns:xlink="http://www.w3.org/1999/xlink" xmlns:a="http://ns.adobe.com/AdobeSVGViewerExtensions/3.0/"
	 x="0px" y="0px" width="20px" height="18px" viewBox="-1.029 -1.834 20 18" enable-background="new -1.029 -1.834 20 18"
	 xml:space="preserve">
<defs>
</defs>
<path fill="#FFFFFF" d="M3.815,5.489c-0.205,0-0.411-0.079-0.567-0.235c-0.314-0.314-0.314-0.822,0-1.137l3.834-3.834
	c0.312-0.313,0.821-0.313,1.135,0c0.314,0.314,0.314,0.823,0,1.137L4.383,5.254C4.227,5.41,4.021,5.489,3.815,5.489z"/>
<path fill="#FFFFFF" d="M17.471,6.828v0.401c0,0.443-0.36,0.802-0.804,0.802h-0.333l-1.414,4.951
	c-0.262,0.873-1.013,1.547-1.867,1.547H4.417c-0.854,0-1.605-0.674-1.866-1.547L1.136,8.031H0.804C0.36,8.031,0,7.672,0,7.229V6.828
	c0-0.444,0.36-0.804,0.804-0.804h1.747H14.92h1.747C17.11,6.024,17.471,6.384,17.471,6.828z M5.823,8.031H4.618v5.422h1.205V8.031z
	 M9.438,8.031H8.233v5.422h1.204V8.031z M13.053,8.031h-1.205v5.422h1.205V8.031z"/>
<path fill="#FFFFFF" d="M13.655,5.44c-0.206,0-0.411-0.079-0.567-0.235L9.254,1.371c-0.314-0.313-0.314-0.822,0-1.137
	c0.313-0.312,0.822-0.312,1.135,0l3.834,3.834c0.314,0.314,0.314,0.823,0,1.137C14.066,5.361,13.86,5.44,13.655,5.44z"/>
</svg>
