<?xml version="1.0" encoding="utf-8"?>
<!-- Generator: Adobe Illustrator 14.0.0, SVG Export Plug-In  -->
<!DOCTYPE svg PUBLIC "-//W3C//DTD SVG 1.1//EN" "http://www.w3.org/Graphics/SVG/1.1/DTD/svg11.dtd" [
	<!ENTITY ns_flows "http://ns.adobe.com/Flows/1.0/">
]>
<svg version="1.1"
	 xmlns="http://www.w3.org/2000/svg" xmlns:xlink="http://www.w3.org/1999/xlink" xmlns:a="http://ns.adobe.com/AdobeSVGViewerExtensions/3.0/"
	 x="0px" y="0px" width="156px" height="27px" viewBox="-2.926 -1.825 156 27" enable-background="new -2.926 -1.825 156 27"
	 xml:space="preserve">
<defs>
</defs>
<path fill="none" stroke="#CCCCCB" stroke-width="2.5495" stroke-miterlimit="10" d="M14.075,7.675c0,3.5-2.899,6.4-6.399,6.4
	s-6.4-2.9-6.4-6.4s2.9-6.4,6.4-6.4C11.275,1.275,14.075,4.175,14.075,7.675z"/>
<line fill="none" stroke="#CCCCCB" stroke-width="3.2585" stroke-miterlimit="10" x1="12.075" y1="12.175" x2="19.075" y2="19.075"/>
<path fill="#B5B5B5" d="M127.875,9.275c-0.3,0-0.5-0.1-0.699-0.3c-0.4-0.4-0.4-1.1,0-1.5l5-5c0.399-0.4,1.1-0.4,1.5,0
	c0.399,0.4,0.399,1.1,0,1.5l-5,5C128.375,9.175,128.175,9.275,127.875,9.275z"/>
<path fill="#B5B5B5" d="M145.575,11.075v0.5c0,0.6-0.5,1-1,1h-0.399l-1.801,6.399c-0.3,1.101-1.3,2-2.399,2h-11.2
	c-1.1,0-2.1-0.899-2.4-2l-1.8-6.399h-0.399c-0.601,0-1-0.5-1-1v-0.5c0-0.6,0.5-1,1-1h2.3h16.1h2.3
	C145.175,9.975,145.575,10.475,145.575,11.075z M130.475,12.575h-1.601v7h1.601V12.575z M135.175,12.575h-1.601v7h1.601V12.575z
	 M139.875,12.575h-1.6v7h1.6V12.575z"/>
<path fill="#B5B5B5" d="M140.675,9.275c-0.301,0-0.5-0.1-0.7-0.3l-5-5c-0.4-0.4-0.4-1.1,0-1.5c0.399-0.4,1.1-0.4,1.5,0l5,5
	c0.399,0.4,0.399,1.1,0,1.5C141.175,9.175,140.975,9.275,140.675,9.275z"/>
<line fill="none" stroke="#CCCCCB" stroke-width="2.6978" stroke-linecap="round" stroke-miterlimit="10" x1="38.575" y1="2.475" x2="61.575" y2="2.475"/>
<line fill="none" stroke="#CCCCCB" stroke-width="2.6978" stroke-linecap="round" stroke-miterlimit="10" x1="38.575" y1="11.075" x2="61.575" y2="11.075"/>
<line fill="none" stroke="#CCCCCB" stroke-width="2.6978" stroke-linecap="round" stroke-miterlimit="10" x1="38.575" y1="19.675" x2="61.575" y2="19.675"/>
<path fill="#B4B4B4" d="M103.159,9.157c-0.143-0.72-0.355-1.425-0.635-2.094c-0.277-0.671-0.625-1.322-1.033-1.93
	c-0.406-0.607-0.873-1.176-1.389-1.69c-0.031-0.033-0.064-0.066-0.1-0.1l0,0L100,3.341l-0.008-0.008h-0.002V3.331
	c-0.033-0.031-0.062-0.06-0.096-0.09c-0.029-0.029-0.061-0.058-0.094-0.089c-0.031-0.029-0.064-0.059-0.096-0.087
	c-0.955-0.866-2.039-1.552-3.221-2.042c-0.295-0.122-0.6-0.233-0.904-0.33c-0.094-0.03-0.191-0.059-0.285-0.087
	c-0.102-0.027-0.201-0.056-0.299-0.082c-0.105-0.026-0.213-0.052-0.32-0.076c-0.113-0.026-0.227-0.05-0.342-0.072
	c-0.127-0.024-0.256-0.047-0.383-0.067c-0.154-0.024-0.311-0.044-0.465-0.062c-0.234-0.026-0.471-0.046-0.705-0.058
	c-0.189-0.009-0.379-0.014-0.564-0.014h-0.004h-0.004c-0.186,0-0.377,0.005-0.564,0.014c-0.236,0.012-0.473,0.032-0.707,0.058
	c-0.154,0.018-0.311,0.039-0.463,0.062c-0.127,0.02-0.256,0.043-0.383,0.067c-0.115,0.021-0.23,0.045-0.342,0.072
	c-0.107,0.024-0.213,0.049-0.318,0.076c-0.102,0.025-0.201,0.054-0.301,0.082c-0.096,0.028-0.191,0.057-0.285,0.087
	c-0.305,0.096-0.609,0.208-0.904,0.33c-1.184,0.489-2.266,1.176-3.221,2.042c-0.033,0.029-0.064,0.059-0.096,0.087
	c-0.033,0.031-0.064,0.06-0.096,0.09c-0.02,0.018-0.037,0.037-0.059,0.055v0.001c-0.004,0.004-0.008,0.007-0.012,0.01l-0.047,0.044
	v0.002c-0.031,0.03-0.061,0.059-0.088,0.088c-0.518,0.514-0.984,1.083-1.389,1.69c-0.41,0.608-0.756,1.259-1.033,1.928
	c-0.281,0.671-0.492,1.376-0.635,2.096c-0.141,0.715-0.215,1.447-0.213,2.176c-0.002,0.729,0.072,1.46,0.213,2.177
	c0.143,0.721,0.354,1.424,0.635,2.094c0.277,0.672,0.623,1.32,1.033,1.93c0.404,0.607,0.871,1.175,1.389,1.689
	c0.045,0.046,0.092,0.092,0.139,0.138c0.023,0.024,0.047,0.048,0.072,0.071c0.033,0.029,0.062,0.059,0.096,0.089
	c0.031,0.029,0.064,0.059,0.096,0.088c0.953,0.862,2.033,1.548,3.215,2.035c0.295,0.123,0.598,0.234,0.904,0.331
	c0.094,0.029,0.191,0.059,0.285,0.085c0.1,0.028,0.199,0.056,0.301,0.081c0.105,0.027,0.211,0.053,0.318,0.076
	c0.111,0.025,0.229,0.051,0.342,0.073c0.127,0.024,0.256,0.046,0.383,0.065c0.152,0.024,0.311,0.047,0.463,0.064
	c0.234,0.026,0.473,0.046,0.707,0.057c0.188,0.011,0.377,0.016,0.564,0.016h0.004h0.004c0.188,0,0.375-0.005,0.564-0.016
	c0.234-0.011,0.471-0.03,0.705-0.057c0.154-0.018,0.311-0.04,0.465-0.064c0.127-0.02,0.256-0.041,0.383-0.065
	c0.113-0.022,0.229-0.048,0.342-0.073c0.107-0.022,0.213-0.049,0.32-0.076c0.098-0.025,0.197-0.053,0.299-0.081
	c0.094-0.026,0.191-0.056,0.285-0.085c0.305-0.097,0.609-0.208,0.904-0.33c1.184-0.491,2.27-1.18,3.225-2.047
	c0.033-0.03,0.066-0.059,0.098-0.088c0.033-0.031,0.062-0.061,0.096-0.091c0.029-0.028,0.059-0.058,0.09-0.086
	c0.004-0.003,0.008-0.009,0.012-0.011l0.045-0.045l0,0c0.018-0.018,0.037-0.035,0.053-0.053c0.516-0.517,0.982-1.084,1.389-1.691
	c0.408-0.609,0.756-1.258,1.033-1.93c0.279-0.67,0.492-1.373,0.635-2.094c0.141-0.715,0.213-1.448,0.213-2.177
	C103.372,10.604,103.299,9.872,103.159,9.157z M99.426,5.633c0.039-0.02,0.078-0.038,0.117-0.057s0.078-0.039,0.117-0.058
	c0.039-0.02,0.076-0.04,0.115-0.06c0.029-0.015,0.059-0.031,0.088-0.046c0.51,0.66,0.936,1.39,1.264,2.171
	c0.357,0.848,0.592,1.735,0.695,2.637c0.004,0.037,0.008,0.075,0.012,0.111s0.006,0.074,0.012,0.111
	c0.004,0.037,0.006,0.074,0.008,0.112c0.002,0.011,0.004,0.023,0.004,0.034h-0.061h-0.117h-0.119h-0.117h-2.631h-0.117h-0.117
	h-0.117h-0.098c0-0.037-0.002-0.074-0.006-0.111c0-0.041-0.002-0.081-0.004-0.122c-0.002-0.041-0.004-0.082-0.008-0.123
	c-0.002-0.041-0.004-0.082-0.006-0.122c-0.07-1.173-0.244-2.304-0.512-3.359c-0.012-0.039-0.021-0.08-0.031-0.119
	c-0.01-0.04-0.021-0.079-0.031-0.119c-0.012-0.039-0.023-0.079-0.035-0.118c-0.008-0.031-0.014-0.06-0.023-0.089
	c0.029-0.009,0.057-0.018,0.086-0.029c0.039-0.012,0.076-0.025,0.117-0.038c0.039-0.013,0.076-0.026,0.117-0.039
	c0.039-0.014,0.078-0.027,0.115-0.04c0.406-0.143,0.797-0.302,1.164-0.474C99.348,5.671,99.387,5.652,99.426,5.633z M98.653,4.116
	c0.029,0.025,0.057,0.052,0.086,0.079c0.029,0.025,0.057,0.051,0.084,0.078c-0.033,0.017-0.068,0.033-0.104,0.05
	c-0.035,0.016-0.07,0.033-0.105,0.049c-0.303,0.139-0.627,0.268-0.961,0.386c-0.035,0.012-0.07,0.024-0.105,0.036
	c-0.035,0.012-0.072,0.025-0.107,0.037c-0.037,0.012-0.07,0.023-0.107,0.034c-0.033,0.011-0.07,0.023-0.104,0.034l-0.012-0.024
	L97.215,4.87c-0.014-0.038-0.031-0.078-0.049-0.116c-0.014-0.039-0.031-0.078-0.047-0.116c-0.018-0.039-0.033-0.078-0.051-0.116
	s-0.035-0.078-0.051-0.116c-0.363-0.799-0.77-1.476-1.242-2.064C96.84,2.765,97.811,3.36,98.653,4.116z M93.002,7.093
	c0.949-0.037,1.875-0.137,2.762-0.303c0.041-0.008,0.08-0.015,0.121-0.023c0.041-0.009,0.08-0.017,0.121-0.024
	c0.041-0.008,0.082-0.017,0.123-0.025c0.039-0.008,0.078-0.017,0.119-0.025c0.006-0.001,0.014-0.003,0.02-0.004
	c0.01,0.035,0.021,0.07,0.031,0.105c0.01,0.036,0.02,0.073,0.031,0.11c0.01,0.036,0.018,0.073,0.027,0.109
	c0.01,0.036,0.02,0.072,0.029,0.109c0.244,0.959,0.402,1.992,0.467,3.066c0.004,0.039,0.006,0.075,0.008,0.114
	c0.002,0.039,0.004,0.077,0.006,0.115c0.002,0.038,0.004,0.077,0.004,0.115c0.004,0.02,0.004,0.038,0.004,0.057h-0.066H96.69h-0.119
	h-0.117h-3.451V7.093z M91.428,10.589h-3.455h-0.119h-0.117h-0.119h-0.066c0-0.019,0-0.038,0.002-0.057
	c0.002-0.038,0.004-0.077,0.006-0.115c0.002-0.038,0.004-0.076,0.004-0.115c0.004-0.038,0.006-0.076,0.008-0.114
	c0.066-1.074,0.223-2.106,0.469-3.066c0.01-0.037,0.018-0.073,0.029-0.109c0.01-0.037,0.018-0.072,0.027-0.109
	c0.01-0.037,0.02-0.074,0.029-0.11c0.012-0.035,0.021-0.071,0.031-0.105c0.008,0.001,0.014,0.003,0.02,0.004
	c0.041,0.008,0.082,0.017,0.123,0.025c0.039,0.009,0.078,0.018,0.119,0.025c0.041,0.007,0.082,0.015,0.123,0.024
	c0.039,0.008,0.08,0.015,0.121,0.023c0.887,0.166,1.816,0.267,2.766,0.304V10.589z M87.616,12.077h0.121h0.117h0.119h3.455v3.495
	c-0.951,0.039-1.879,0.141-2.766,0.307c-0.039,0.008-0.08,0.016-0.121,0.023s-0.082,0.016-0.123,0.023
	c-0.039,0.009-0.08,0.018-0.119,0.025c-0.041,0.009-0.082,0.018-0.121,0.025c-0.006,0.002-0.014,0.004-0.02,0.005
	c-0.01-0.036-0.021-0.069-0.031-0.105s-0.02-0.072-0.029-0.11c-0.01-0.035-0.02-0.072-0.029-0.109
	c-0.01-0.036-0.02-0.072-0.029-0.108c-0.244-0.962-0.402-1.993-0.469-3.069c-0.002-0.038-0.004-0.076-0.008-0.113
	c0-0.039-0.002-0.078-0.004-0.115c-0.002-0.038-0.004-0.078-0.006-0.116c-0.002-0.019-0.002-0.038-0.002-0.057H87.616z
	 M93.002,12.077h3.451h0.117h0.119h0.119h0.066c0,0.019,0,0.038-0.004,0.058c0,0.039-0.002,0.077-0.004,0.115
	c-0.002,0.037-0.004,0.076-0.006,0.115c-0.002,0.037-0.004,0.075-0.008,0.113c-0.064,1.073-0.221,2.103-0.465,3.061
	c-0.012,0.037-0.02,0.074-0.029,0.111s-0.02,0.072-0.029,0.109c-0.012,0.037-0.021,0.072-0.031,0.109
	c-0.01,0.035-0.02,0.07-0.029,0.105c-0.006-0.002-0.014-0.002-0.021-0.004c-0.039-0.009-0.078-0.018-0.119-0.025
	s-0.082-0.017-0.123-0.025c-0.041-0.008-0.08-0.016-0.119-0.022c-0.041-0.009-0.082-0.016-0.123-0.022
	c-0.887-0.166-1.812-0.267-2.762-0.303V12.077z M93.338,2.163c0.008,0.003,0.014,0.008,0.021,0.012
	c0.07,0.039,0.143,0.082,0.215,0.127c0.064,0.043,0.133,0.09,0.201,0.141c0.061,0.046,0.121,0.095,0.18,0.146
	c0.055,0.046,0.111,0.095,0.164,0.146c0.051,0.048,0.104,0.1,0.154,0.15c0.037,0.038,0.074,0.078,0.111,0.118
	c0.484,0.535,0.896,1.183,1.26,1.98c0.016,0.035,0.033,0.069,0.049,0.104c0.014,0.035,0.029,0.069,0.047,0.104
	c0.008,0.026,0.021,0.053,0.031,0.081c-0.029,0.006-0.059,0.012-0.088,0.018c-0.039,0.008-0.076,0.014-0.115,0.022
	c-0.035,0.008-0.074,0.014-0.111,0.021c-0.789,0.145-1.611,0.235-2.455,0.271V2.012c0.018,0.007,0.031,0.011,0.047,0.017
	C93.145,2.067,93.243,2.112,93.338,2.163z M88.688,5.191c0.016-0.035,0.031-0.069,0.045-0.104c0.016-0.036,0.033-0.07,0.047-0.104
	c0.365-0.799,0.777-1.447,1.262-1.98c0.037-0.04,0.072-0.081,0.111-0.118c0.051-0.052,0.102-0.102,0.152-0.15
	c0.055-0.051,0.109-0.1,0.166-0.147c0.059-0.049,0.119-0.098,0.18-0.144c0.066-0.05,0.137-0.097,0.201-0.141
	c0.072-0.046,0.143-0.089,0.213-0.127h0.002l0,0c0.008-0.003,0.014-0.008,0.021-0.012c0.096-0.051,0.191-0.095,0.289-0.133
	c0.018-0.006,0.033-0.011,0.051-0.018v3.594c-0.846-0.036-1.67-0.126-2.459-0.271c-0.037-0.008-0.074-0.014-0.111-0.021
	c-0.039-0.008-0.078-0.014-0.115-0.022c-0.029-0.006-0.059-0.012-0.09-0.018C88.665,5.245,88.676,5.218,88.688,5.191z M85.688,4.195
	c0.027-0.027,0.057-0.054,0.084-0.079c0.844-0.756,1.812-1.352,2.879-1.774c-0.475,0.588-0.881,1.265-1.242,2.064
	c-0.018,0.039-0.033,0.078-0.051,0.116S87.323,4.6,87.307,4.638c-0.016,0.038-0.035,0.077-0.049,0.116
	c-0.016,0.038-0.033,0.077-0.049,0.116l-0.012,0.029c-0.033-0.011-0.07-0.023-0.105-0.034c-0.035-0.011-0.07-0.022-0.105-0.034
	c-0.035-0.011-0.072-0.025-0.107-0.037c-0.037-0.012-0.072-0.024-0.107-0.036c-0.332-0.118-0.656-0.247-0.959-0.386
	c-0.035-0.017-0.07-0.033-0.107-0.049c-0.033-0.017-0.068-0.033-0.102-0.05C85.631,4.246,85.659,4.221,85.688,4.195z M82.571,10.555
	c0.004-0.037,0.006-0.075,0.01-0.112c0.004-0.037,0.008-0.074,0.012-0.111s0.006-0.074,0.012-0.111
	c0.105-0.921,0.348-1.827,0.719-2.692c0.322-0.76,0.74-1.47,1.24-2.115c0.029,0.015,0.059,0.031,0.088,0.046
	c0.039,0.02,0.076,0.04,0.115,0.06c0.039,0.019,0.076,0.039,0.117,0.058C84.922,5.595,84.959,5.614,85,5.633
	c0.037,0.019,0.078,0.038,0.117,0.056c0.369,0.172,0.76,0.331,1.164,0.474c0.041,0.013,0.078,0.026,0.117,0.04
	c0.039,0.013,0.078,0.026,0.117,0.039s0.078,0.025,0.115,0.038c0.029,0.009,0.059,0.02,0.088,0.029
	c-0.008,0.029-0.018,0.058-0.025,0.087c-0.01,0.04-0.021,0.08-0.033,0.119c-0.01,0.04-0.021,0.079-0.031,0.119
	c-0.01,0.041-0.02,0.081-0.031,0.119c-0.27,1.055-0.443,2.186-0.512,3.359c-0.002,0.041-0.006,0.082-0.006,0.122
	c-0.002,0.041-0.006,0.082-0.008,0.123c-0.002,0.041-0.004,0.081-0.006,0.122c0,0.037-0.004,0.074-0.006,0.111h-0.096h-0.117h-0.119
	h-0.117h-2.629h-0.119h-0.119h-0.117h-0.059C82.569,10.578,82.569,10.566,82.571,10.555z M85.004,17.037
	c-0.039,0.02-0.08,0.039-0.117,0.058c-0.039,0.019-0.08,0.04-0.117,0.059c-0.039,0.021-0.078,0.04-0.115,0.06
	c-0.027,0.016-0.059,0.03-0.086,0.047c-0.506-0.65-0.928-1.369-1.254-2.138c-0.367-0.86-0.605-1.762-0.711-2.676
	c-0.006-0.037-0.008-0.075-0.012-0.112s-0.008-0.074-0.012-0.111s-0.006-0.073-0.01-0.11c-0.002-0.011-0.002-0.024-0.002-0.035
	h0.059h0.117h0.119h0.119h2.629h0.117h0.119h0.117h0.096c0.002,0.036,0.006,0.073,0.006,0.11c0.002,0.041,0.004,0.081,0.006,0.123
	c0.002,0.041,0.006,0.08,0.008,0.121c0,0.041,0.004,0.082,0.006,0.123c0.07,1.175,0.242,2.307,0.512,3.361
	c0.012,0.041,0.021,0.08,0.031,0.12c0.012,0.039,0.021,0.079,0.033,0.12c0.01,0.039,0.021,0.078,0.033,0.117
	c0.008,0.03,0.016,0.061,0.025,0.09c-0.031,0.008-0.059,0.018-0.088,0.027c-0.037,0.013-0.076,0.025-0.117,0.039
	c-0.039,0.012-0.076,0.025-0.117,0.039c-0.039,0.013-0.076,0.027-0.115,0.041c-0.402,0.141-0.795,0.3-1.162,0.472
	C85.081,17.001,85.043,17.02,85.004,17.037z M85.78,18.555c-0.031-0.025-0.059-0.053-0.088-0.077
	c-0.029-0.028-0.057-0.053-0.084-0.079c0.033-0.018,0.068-0.033,0.102-0.051c0.037-0.016,0.072-0.032,0.109-0.049
	c0.303-0.139,0.623-0.269,0.955-0.386c0.037-0.013,0.072-0.024,0.107-0.036s0.072-0.024,0.107-0.036
	c0.035-0.013,0.07-0.024,0.107-0.036c0.035-0.012,0.07-0.022,0.104-0.033l0.014,0.029c0.014,0.039,0.029,0.076,0.047,0.116
	c0.016,0.038,0.031,0.076,0.049,0.116c0.016,0.038,0.033,0.076,0.049,0.113c0.018,0.041,0.035,0.078,0.051,0.117
	c0.363,0.798,0.768,1.473,1.242,2.061C87.586,19.902,86.62,19.309,85.78,18.555z M91.09,20.504c-0.01-0.003-0.018-0.009-0.025-0.012
	c-0.07-0.039-0.141-0.082-0.213-0.127c-0.064-0.043-0.135-0.092-0.201-0.141c-0.061-0.046-0.121-0.095-0.18-0.146
	c-0.057-0.047-0.113-0.097-0.166-0.147c-0.051-0.047-0.102-0.098-0.152-0.15c-0.039-0.039-0.076-0.077-0.111-0.117l0.002,0.002
	c-0.484-0.535-0.896-1.182-1.262-1.979c-0.016-0.035-0.031-0.069-0.047-0.105c-0.016-0.033-0.031-0.068-0.047-0.104
	c-0.01-0.027-0.021-0.054-0.033-0.082c0.029-0.006,0.059-0.012,0.09-0.018c0.037-0.008,0.076-0.016,0.113-0.023
	c0.037-0.006,0.076-0.014,0.113-0.02c0.787-0.146,1.611-0.238,2.457-0.273v3.592c-0.018-0.006-0.033-0.012-0.051-0.018
	C91.28,20.6,91.184,20.554,91.09,20.504z M95.741,17.473c-0.018,0.035-0.033,0.07-0.047,0.104c-0.016,0.034-0.031,0.069-0.045,0.104
	c-0.367,0.8-0.779,1.449-1.266,1.985l0.002-0.002c-0.037,0.04-0.074,0.081-0.111,0.119c-0.051,0.051-0.104,0.102-0.154,0.148
	c-0.053,0.051-0.109,0.101-0.164,0.147c-0.059,0.051-0.119,0.1-0.182,0.146c-0.066,0.049-0.135,0.098-0.199,0.141
	c-0.072,0.046-0.145,0.088-0.213,0.127c-0.008,0.003-0.016,0.009-0.025,0.012c-0.094,0.05-0.191,0.096-0.289,0.133
	c-0.014,0.006-0.027,0.012-0.045,0.017v-3.593c0.844,0.036,1.668,0.125,2.455,0.27c0.037,0.006,0.076,0.014,0.113,0.021
	c0.039,0.008,0.076,0.015,0.113,0.022c0.029,0.006,0.061,0.012,0.092,0.018C95.762,17.418,95.752,17.446,95.741,17.473z
	 M98.747,18.467c-0.029,0.026-0.061,0.054-0.088,0.078c-0.846,0.758-1.814,1.356-2.883,1.779c0.475-0.588,0.883-1.268,1.244-2.069
	c0.016-0.038,0.033-0.075,0.051-0.114s0.031-0.078,0.051-0.115c0.016-0.039,0.031-0.078,0.049-0.116
	c0.014-0.038,0.031-0.077,0.047-0.116l0.012-0.027v-0.003c0.035,0.012,0.07,0.023,0.105,0.034c0.037,0.012,0.072,0.023,0.107,0.035
	s0.072,0.023,0.107,0.035c0.035,0.013,0.072,0.023,0.105,0.037c0.334,0.117,0.658,0.248,0.965,0.385
	c0.033,0.018,0.07,0.033,0.105,0.051c0.035,0.016,0.068,0.033,0.104,0.049C98.799,18.416,98.772,18.441,98.747,18.467z
	 M101.854,12.112c-0.002,0.037-0.004,0.073-0.008,0.11c-0.006,0.037-0.008,0.074-0.012,0.111s-0.008,0.074-0.012,0.112
	c-0.104,0.907-0.342,1.8-0.703,2.654c-0.326,0.771-0.748,1.494-1.252,2.148c-0.029-0.017-0.061-0.032-0.09-0.048
	c-0.037-0.02-0.076-0.039-0.113-0.058c-0.039-0.021-0.078-0.04-0.117-0.059c-0.039-0.02-0.078-0.039-0.119-0.058
	c-0.037-0.02-0.076-0.037-0.117-0.056c-0.369-0.171-0.76-0.33-1.166-0.473c-0.037-0.013-0.078-0.026-0.117-0.04
	s-0.078-0.025-0.117-0.039c-0.039-0.012-0.078-0.025-0.117-0.038c-0.027-0.009-0.057-0.019-0.086-0.028
	c0.01-0.029,0.018-0.059,0.025-0.088c0.01-0.039,0.021-0.078,0.033-0.118c0.01-0.04,0.021-0.079,0.031-0.119
	c0.012-0.039,0.021-0.079,0.031-0.12c0.27-1.052,0.441-2.181,0.512-3.354c0.002-0.04,0.004-0.081,0.006-0.121
	c0.004-0.043,0.006-0.083,0.008-0.123c0.002-0.041,0.004-0.081,0.004-0.123c0.004-0.037,0.006-0.074,0.006-0.11h0.098h0.117h0.117
	h0.117h2.631h0.117h0.119h0.117h0.061C101.858,12.088,101.856,12.102,101.854,12.112z"/>
</svg>
