<?xml version="1.0" encoding="utf-8"?>
<!-- Generator: Adobe Illustrator 14.0.0, SVG Export Plug-In  -->
<!DOCTYPE svg PUBLIC "-//W3C//DTD SVG 1.1//EN" "http://www.w3.org/Graphics/SVG/1.1/DTD/svg11.dtd" [
	<!ENTITY ns_flows "http://ns.adobe.com/Flows/1.0/">
]>
<svg version="1.1"
	 xmlns="http://www.w3.org/2000/svg" xmlns:xlink="http://www.w3.org/1999/xlink" xmlns:a="http://ns.adobe.com/AdobeSVGViewerExtensions/3.0/"
	 x="0px" y="0px" width="292px" height="60px" viewBox="-0.5 -0.606 292 60" enable-background="new -0.5 -0.606 292 60"
	 xml:space="preserve">
<defs>
</defs>
<linearGradient id="SVGID_1_" gradientUnits="userSpaceOnUse" x1="28.5176" y1="9.5024" x2="28.5176" y2="42.8096">
	<stop  offset="0" style="stop-color:#010101"/>
	<stop  offset="1" style="stop-color:#4E4E4E"/>
</linearGradient>
<path fill="url(#SVGID_1_)" stroke="#B4B4B4" d="M52.966,0.5H4.07C2.107,0.5,0.5,2.101,0.5,4.059v48.45
	c0,1.958,1.607,3.558,3.57,3.558h48.896c1.963,0,3.569-1.6,3.569-3.558V4.059C56.535,2.101,54.929,0.5,52.966,0.5z"/>
<linearGradient id="SVGID_2_" gradientUnits="userSpaceOnUse" x1="86.5176" y1="9.5024" x2="86.5176" y2="42.8096">
	<stop  offset="0" style="stop-color:#010101"/>
	<stop  offset="1" style="stop-color:#4E4E4E"/>
</linearGradient>
<path fill="url(#SVGID_2_)" stroke="#B4B4B4" d="M110.966,0.5H62.07c-1.963,0-3.57,1.601-3.57,3.559v48.45
	c0,1.958,1.607,3.558,3.57,3.558h48.896c1.963,0,3.569-1.6,3.569-3.558V4.059C114.535,2.101,112.929,0.5,110.966,0.5z"/>
<linearGradient id="SVGID_3_" gradientUnits="userSpaceOnUse" x1="144.1841" y1="9.5024" x2="144.1841" y2="42.8096">
	<stop  offset="0" style="stop-color:#010101"/>
	<stop  offset="1" style="stop-color:#4E4E4E"/>
</linearGradient>
<path fill="url(#SVGID_3_)" stroke="#B4B4B4" d="M168.632,0.5h-48.896c-1.963,0-3.57,1.601-3.57,3.559v48.449
	c0,1.959,1.607,3.559,3.57,3.559h48.896c1.963,0,3.569-1.6,3.569-3.559V4.059C172.202,2.101,170.595,0.5,168.632,0.5z"/>
<linearGradient id="SVGID_4_" gradientUnits="userSpaceOnUse" x1="201.5176" y1="9.5024" x2="201.5176" y2="42.8096">
	<stop  offset="0" style="stop-color:#010101"/>
	<stop  offset="1" style="stop-color:#4E4E4E"/>
</linearGradient>
<path fill="url(#SVGID_4_)" stroke="#B4B4B4" d="M225.966,0.5H177.07c-1.963,0-3.57,1.602-3.57,3.559v48.45
	c0,1.958,1.607,3.558,3.57,3.558h48.896c1.963,0,3.569-1.6,3.569-3.558V4.059C229.535,2.102,227.929,0.5,225.966,0.5z"/>
<linearGradient id="SVGID_5_" gradientUnits="userSpaceOnUse" x1="259.5176" y1="9.5024" x2="259.5176" y2="42.8096">
	<stop  offset="0" style="stop-color:#010101"/>
	<stop  offset="1" style="stop-color:#4E4E4E"/>
</linearGradient>
<path fill="url(#SVGID_5_)" stroke="#B4B4B4" d="M283.966,0.5H235.07c-1.963,0-3.57,1.602-3.57,3.559v48.45
	c0,1.958,1.607,3.558,3.57,3.558h48.896c1.963,0,3.569-1.6,3.569-3.558V4.059C287.535,2.102,285.929,0.5,283.966,0.5z"/>
<polygon fill="none" stroke="#FFFFFF" stroke-width="1.6598" stroke-miterlimit="10" points="39.63,43.34 17.694,43.34 
	17.694,13.049 34.3,13.049 39.63,18.27 "/>
<line fill="none" stroke="#FFFFFF" stroke-width="1.6598" stroke-linecap="round" stroke-miterlimit="10" x1="21.842" y1="24.284" x2="35.422" y2="24.284"/>
<line fill="none" stroke="#FFFFFF" stroke-width="1.6598" stroke-linecap="round" stroke-miterlimit="10" x1="21.842" y1="29.637" x2="35.422" y2="29.637"/>
<line fill="none" stroke="#FFFFFF" stroke-width="1.6598" stroke-linecap="round" stroke-miterlimit="10" x1="21.842" y1="34.921" x2="35.422" y2="34.921"/>
<polyline fill="none" stroke="#FFFFFF" stroke-width="1.6598" stroke-miterlimit="10" points="33.362,12.527 33.362,18.271 
	39.6,18.271 "/>
<path fill="#FFFFFF" d="M77.052,14.189v-0.004H77.04v30.16h17.4V14.189H77.052z M91.479,34.933H80.088V22.27h11.391V34.933z"/>
<rect x="83.572" y="9.242" fill="#FFFFFF" width="4.64" height="3.333"/>
<path fill="#FFFFFF" d="M82.885,25.233h-0.887l-0.745,3.077h0.527c-0.31,0.131-0.539,0.378-0.539,0.746v1.689
	c0,1.136,2.185,1.136,2.185,0v-1.124h-1.045v0.718h0.264v0.182c0,0.449-0.589,0.436-0.589,0v-1.219c0-0.436,0.589-0.449,0.589,0
	h0.782v-0.246c0-0.368-0.229-0.615-0.538-0.746h0.748L82.885,25.233z M82.466,26.425l0.13,0.654h-0.289L82.466,26.425z
	 M82.076,28.226l0.077-0.452h0.59l0.134,0.532C82.635,28.207,82.344,28.181,82.076,28.226"/>
<path fill="#FFFFFF" d="M90.232,27.643v-1.714c0-1.087-1.998-1.133-2.172-0.142v-0.554H85.87v0.762h0.714v2.351h0.103v0.004
	l-0.399,0.722l-0.399-0.724h-0.694c0.314-0.13,0.546-0.38,0.546-0.75v-2.365h-0.782v2.141c0,0.4-0.621,0.4-0.621,0v-2.141h-0.781
	v2.365c0,0.37,0.232,0.62,0.545,0.75h-0.374v3.127h1.908v-0.699h-1.12v-2.331c0.158,0.013,0.32,0.001,0.471-0.032l0.864,1.664v1.398
	h0.794v-1.398l0.923-1.673v3.071h0.751v-1.485l0.289,1.485h0.603l0.303-1.485v1.485h0.719v-3.127h-0.451
	C90.045,28.21,90.232,27.976,90.232,27.643 M87.6,28.348h-0.031h-0.197v-0.002l0,0v-2.351h0.677v1.648
	c0,0.333,0.188,0.567,0.452,0.706H87.6z M88.922,29.478l-0.299-1.073c0.17,0.063,0.361,0.094,0.551,0.09L88.922,29.478z
	 M89.451,27.418c0,0.4-0.597,0.4-0.597,0v-1.265c0-0.399,0.597-0.399,0.597,0V27.418z"/>
<path fill="#FFFFFF" d="M216.351,17.944c0-1.746-1.429-3.174-3.173-3.175l-24.661-0.002c-1.746,0-3.173,1.429-3.173,3.173
	l-0.001,20.835c0,1.745,1.428,3.173,3.173,3.173h24.662c1.746,0,3.174-1.428,3.174-3.173L216.351,17.944z M213.182,22.747v11.295
	c0,0.824-0.674,1.498-1.498,1.498H189.84c-0.823,0-1.498-0.674-1.498-1.498V22.749c0-0.824,0.674-1.498,1.497-1.498h21.844
	C212.508,21.251,213.182,21.924,213.182,22.747z M210.505,17.075c0-0.154,0.126-0.282,0.282-0.282h2
	c0.154,0,0.281,0.128,0.281,0.282v2.001c0,0.156-0.127,0.282-0.283,0.282l-2,0.001c-0.154,0-0.282-0.127-0.282-0.281L210.505,17.075
	z M205.033,17.075c0-0.154,0.127-0.282,0.281-0.282h2c0.156,0,0.282,0.128,0.282,0.282l0.001,1.999c0,0.156-0.127,0.282-0.282,0.284
	l-2.001,0.001c-0.154,0-0.281-0.127-0.281-0.281V17.075z M199.51,17.105c0-0.161,0.132-0.294,0.293-0.294h2.086
	c0.161,0,0.293,0.133,0.293,0.294l0.001,2.086c0,0.162-0.132,0.295-0.293,0.295l-2.087-0.002c-0.161,0-0.293-0.133-0.293-0.293
	V17.105z M193.807,17.105c0-0.161,0.133-0.294,0.294-0.294h2.086c0.161,0,0.293,0.133,0.293,0.294l0.001,2.088
	c0,0.162-0.132,0.294-0.294,0.294l-2.086-0.001c-0.161,0-0.294-0.133-0.294-0.295V17.105z M188.103,17.105
	c0-0.161,0.132-0.294,0.294-0.294h2.085c0.162,0,0.294,0.133,0.294,0.294l0.001,2.088c0,0.162-0.132,0.294-0.294,0.294l-2.087-0.001
	c-0.162,0-0.294-0.133-0.294-0.295V17.105z M190.778,39.804c0,0.162-0.133,0.294-0.294,0.294l-2.086-0.001
	c-0.161,0-0.293-0.133-0.293-0.293v-2.086c0-0.162,0.132-0.294,0.293-0.294h2.086c0.161,0,0.294,0.132,0.294,0.294V39.804z
	 M196.481,39.805c0,0.161-0.132,0.293-0.294,0.293H194.1c-0.161,0-0.293-0.132-0.293-0.294l0-2.086c0-0.162,0.133-0.294,0.294-0.294
	l2.086-0.002c0.162,0,0.294,0.133,0.294,0.295V39.805z M202.184,39.804c0,0.162-0.132,0.294-0.294,0.294h-2.087
	c-0.162,0-0.294-0.132-0.294-0.293l0.001-2.087c0-0.162,0.132-0.294,0.293-0.294h2.087c0.162,0,0.294,0.132,0.294,0.294V39.804z
	 M207.59,40.098h-2.085c-0.161,0-0.294-0.132-0.294-0.293l0.001-2.087c0-0.16,0.132-0.293,0.294-0.293h2.084
	c0.162,0,0.295,0.133,0.295,0.295v2.084C207.885,39.966,207.752,40.098,207.59,40.098z M213.295,40.098h-2.087
	c-0.161,0-0.294-0.132-0.294-0.293l0.002-2.087c0-0.16,0.133-0.293,0.293-0.293l2.084-0.001c0.162,0,0.294,0.132,0.294,0.294
	l0.002,2.086C213.589,39.966,213.456,40.098,213.295,40.098z"/>
<path fill="#FFFFFF" d="M159.495,16.199l-14.086,0.051l-0.013-0.573c-0.022-0.976-0.831-1.748-1.807-1.726l-4.462,0.103
	c-0.976,0.022-1.749,0.831-1.726,1.807l0.053,2.339l0.066,2.886l14.229-0.054l0,0c1.851-0.041,3.384,1.423,3.427,3.273l0.193,8.374
	l4.5-0.103c0.977-0.023,1.748-0.832,1.727-1.808l-0.295-12.844C161.279,16.949,160.47,16.176,159.495,16.199z"/>
<path fill="#FFFFFF" d="M134.088,20.011h-4.922c-1.076,0-1.949,0.873-1.949,1.949v2.579v3.727v8.938
	c0,1.075,0.873,1.948,1.949,1.948h22.407c1.076,0,1.948-0.873,1.948-1.948V24.539c0-1.075-0.872-1.948-1.948-1.948h-15.537V21.96
	C136.036,20.884,135.164,20.011,134.088,20.011z"/>
<path fill="#FFFFFF" d="M273.193,24.112c-0.09-0.21-0.271-0.421-0.482-0.602c-0.211-0.15-0.421-0.211-0.662-0.211h-5.9v-4.967
	c0-0.211-0.029-0.361-0.06-0.512c-0.03-0.451-0.21-0.782-0.542-0.993l-0.03-0.061c-0.271-0.211-0.692-0.301-1.233-0.301h-10.266
	c-0.482,0-0.873,0.09-1.204,0.271c-0.09,0.09-0.181,0.15-0.271,0.24c-0.181,0.211-0.301,0.481-0.361,0.843
	c-0.03,0.15-0.03,0.301-0.03,0.512V23.3h-5.57c-0.241,0-0.481,0.061-0.722,0.211c-0.181,0.181-0.332,0.392-0.421,0.602
	c-0.03,0.241-0.03,0.482,0,0.724c0.09,0.24,0.241,0.422,0.421,0.572l12.793,9.331c0.181,0.151,0.392,0.241,0.663,0.241
	c0.271,0,0.482-0.09,0.662-0.241l12.733-9.331c0.211-0.15,0.393-0.332,0.482-0.572C273.223,24.595,273.223,24.354,273.193,24.112
	L273.193,24.112z"/>
<path fill="#FFFFFF" d="M246.07,35.521c0-0.211-0.09-0.392-0.241-0.542c-0.21-0.181-0.421-0.271-0.632-0.271
	c-0.21,0-0.391,0.09-0.542,0.3c-0.181,0.182-0.271,0.392-0.271,0.603l0.061,2.047c0,0.062,0,0.121,0,0.15v0.031
	c0.03,0.722,0.3,1.384,0.873,1.986l0.06,0.029c0.572,0.573,1.295,0.844,2.138,0.844h23.42c0.843,0,1.564-0.271,2.197-0.844
	c0-0.029,0.03-0.029,0.061-0.029c0.512-0.603,0.812-1.265,0.842-1.986v-0.031c0-0.029,0-0.089,0-0.15l0.031-2.047
	c0-0.211-0.061-0.421-0.211-0.603c-0.15-0.21-0.361-0.3-0.602-0.3c-0.211,0-0.422,0.09-0.572,0.271
	c-0.211,0.15-0.301,0.331-0.301,0.542l-0.031,2.107c0,0.06,0,0.091,0,0.12v0.06c-0.029,0.302-0.15,0.573-0.361,0.844
	c-0.029,0-0.029,0-0.029,0.029c-0.301,0.212-0.633,0.332-1.023,0.332h-23.42c-0.361,0-0.692-0.12-0.963-0.332l-0.06-0.029
	c-0.211-0.271-0.331-0.571-0.361-0.903c0-0.029,0-0.061,0-0.12L246.07,35.521L246.07,35.521z"/>
<path fill="#FFFFFF" d="M204.607,29.04l-6.134,3.196c-0.511,0.267-0.929,0.013-0.929-0.563v-6.238c0-0.576,0.418-0.829,0.929-0.562
	l6.134,3.199C205.118,28.338,205.118,28.774,204.607,29.04z"/>
</svg>
