<?xml version="1.0" encoding="utf-8"?>
<!-- Generator: Adobe Illustrator 14.0.0, SVG Export Plug-In  -->
<!DOCTYPE svg PUBLIC "-//W3C//DTD SVG 1.1//EN" "http://www.w3.org/Graphics/SVG/1.1/DTD/svg11.dtd" [
	<!ENTITY ns_flows "http://ns.adobe.com/Flows/1.0/">
]>
<svg version="1.1"
	 xmlns="http://www.w3.org/2000/svg" xmlns:xlink="http://www.w3.org/1999/xlink" xmlns:a="http://ns.adobe.com/AdobeSVGViewerExtensions/3.0/"
	 x="0px" y="0px" width="217px" height="72px" viewBox="-2.031 -0.876 217 72" enable-background="new -2.031 -0.876 217 72"
	 xml:space="preserve">
<defs>
</defs>
<linearGradient id="SVGID_1_" gradientUnits="userSpaceOnUse" x1="35.3022" y1="1.2075" x2="35.3022" y2="69.5433">
	<stop  offset="0" style="stop-color:#010101"/>
	<stop  offset="1" style="stop-color:#4E4E4E"/>
</linearGradient>
<path fill="url(#SVGID_1_)" stroke="#CCCCCB" stroke-width="1.5" d="M65.452,0.75h-60.3c-2.421,0-4.402,1.975-4.402,4.389V64.89
	c0,2.415,1.981,4.388,4.402,4.388h60.3c2.422,0,4.402-1.973,4.402-4.388V5.139C69.854,2.725,67.874,0.75,65.452,0.75z"/>
<linearGradient id="SVGID_2_" gradientUnits="userSpaceOnUse" x1="106.3022" y1="1.2075" x2="106.3022" y2="69.5433">
	<stop  offset="0" style="stop-color:#010101"/>
	<stop  offset="1" style="stop-color:#4E4E4E"/>
</linearGradient>
<path fill="url(#SVGID_2_)" stroke="#CCCCCB" stroke-width="1.5" d="M136.452,0.75h-60.3c-2.421,0-4.402,1.975-4.402,4.389V64.89
	c0,2.415,1.981,4.388,4.402,4.388h60.3c2.422,0,4.402-1.973,4.402-4.388V5.139C140.854,2.725,138.874,0.75,136.452,0.75z"/>
<linearGradient id="SVGID_3_" gradientUnits="userSpaceOnUse" x1="177.3022" y1="1.2075" x2="177.3022" y2="69.5433">
	<stop  offset="0" style="stop-color:#010101"/>
	<stop  offset="1" style="stop-color:#4E4E4E"/>
</linearGradient>
<path fill="url(#SVGID_3_)" stroke="#CCCCCB" stroke-width="1.5" d="M207.452,0.75h-60.3c-2.421,0-4.402,1.975-4.402,4.389V64.89
	c0,2.415,1.981,4.388,4.402,4.388h60.3c2.422,0,4.402-1.973,4.402-4.388V5.139C211.854,2.725,209.874,0.75,207.452,0.75z"/>
<path fill="#FFFFFF" d="M22.04,17.523v-0.005h-0.016v41.217h23.78V17.523H22.04z M41.755,45.872H26.189V28.567h15.565V45.872z"/>
<rect x="30.95" y="10.763" fill="#FFFFFF" width="6.342" height="4.554"/>
<path fill="#FFFFFF" d="M30.012,30.615H28.8l-1.017,4.206h0.719c-0.423,0.179-0.736,0.518-0.736,1.02v2.308
	c0,1.554,2.985,1.554,2.985,0v-1.535h-1.429v0.98h0.36v0.248c0,0.614-0.805,0.597-0.805,0v-1.665c0-0.596,0.805-0.613,0.805,0h1.068
	v-0.336c0-0.502-0.312-0.841-0.735-1.02h1.021L30.012,30.615z M29.439,32.245l0.178,0.895h-0.396L29.439,32.245z M28.905,34.706
	l0.105-0.618h0.808l0.184,0.728C29.669,34.681,29.272,34.645,28.905,34.706"/>
<path fill="#FFFFFF" d="M40.054,33.909v-2.343c0-1.485-2.731-1.548-2.969-0.193v-0.758H34.09v1.041h0.976v3.214h0.14v0.006
	l-0.544,0.986l-0.546-0.989h-0.948c0.429-0.177,0.746-0.519,0.746-1.024v-3.233h-1.068v2.927c0,0.546-0.849,0.546-0.849,0v-2.927
	h-1.068v3.233c0,0.506,0.318,0.848,0.746,1.024h-0.511v4.274h2.607v-0.956H32.24v-3.186c0.216,0.018,0.437,0.003,0.645-0.043
	l1.181,2.273v1.911h1.085v-1.911l1.262-2.287v4.198h1.026v-2.03l0.395,2.03h0.823l0.413-2.03v2.03h0.984v-4.274h-0.617
	C39.798,34.685,40.054,34.363,40.054,33.909 M36.454,34.873h-0.042h-0.271V34.87h0.001v-3.214h0.925v2.253
	c0,0.454,0.256,0.775,0.617,0.964H36.454z M38.263,36.417l-0.408-1.468c0.231,0.087,0.492,0.129,0.751,0.123L38.263,36.417z
	 M38.985,33.602c0,0.547-0.816,0.547-0.816,0v-1.728c0-0.546,0.816-0.546,0.816,0V33.602z"/>
<path fill="#FFFFFF" d="M125.388,21.857c0-2.188-1.791-3.979-3.979-3.979l-30.922-0.003c-2.188,0-3.979,1.791-3.979,3.979
	l-0.001,26.125c0,2.188,1.791,3.979,3.979,3.979h30.923c2.189,0,3.98-1.791,3.98-3.979L125.388,21.857z M121.415,27.881v14.162
	c0,1.033-0.846,1.879-1.879,1.879H92.147c-1.033,0-1.878-0.846-1.878-1.879l0-14.16c0-1.033,0.845-1.879,1.878-1.879h27.39
	C120.569,26.004,121.415,26.849,121.415,27.881z M118.058,20.768c0-0.193,0.158-0.354,0.354-0.354l2.508,0.001
	c0.193,0,0.354,0.159,0.354,0.354v2.509c0,0.195-0.16,0.354-0.354,0.354l-2.51,0.002c-0.193,0-0.354-0.159-0.354-0.354
	L118.058,20.768z M111.197,20.768c0-0.193,0.159-0.354,0.354-0.354l2.508,0.001c0.194,0,0.354,0.159,0.354,0.354l0.001,2.508
	c0,0.194-0.16,0.354-0.354,0.354l-2.51,0.002c-0.193,0-0.354-0.159-0.354-0.354L111.197,20.768z M104.272,20.807
	c0-0.203,0.166-0.369,0.369-0.369h2.616c0.203,0,0.369,0.166,0.369,0.369l0.001,2.616c0,0.202-0.167,0.368-0.369,0.368l-2.616-0.001
	c-0.203,0-0.369-0.166-0.369-0.368V20.807z M97.12,20.807c0-0.202,0.166-0.368,0.369-0.368l2.616-0.001
	c0.203,0,0.369,0.166,0.369,0.369l0,2.617c0,0.203-0.166,0.369-0.369,0.369l-2.616-0.002c-0.203,0-0.369-0.166-0.369-0.369V20.807z
	 M89.969,20.807c0-0.203,0.166-0.369,0.369-0.369h2.615c0.203,0,0.369,0.166,0.369,0.369l0.001,2.617
	c0,0.203-0.166,0.369-0.368,0.369l-2.618-0.002c-0.203,0-0.369-0.166-0.369-0.368V20.807z M93.323,49.269
	c0,0.202-0.166,0.368-0.369,0.368l-2.616-0.001c-0.203,0-0.369-0.166-0.369-0.368v-2.615c0-0.202,0.166-0.368,0.369-0.368
	l2.616-0.001c0.203,0,0.369,0.166,0.369,0.369V49.269z M100.474,49.27c0,0.202-0.166,0.368-0.369,0.368l-2.617-0.001
	c-0.203,0-0.369-0.166-0.369-0.368l0-2.616c0-0.202,0.166-0.368,0.369-0.368l2.616-0.002c0.203,0,0.369,0.166,0.369,0.368V49.27z
	 M107.624,49.269c0,0.202-0.166,0.368-0.369,0.368l-2.617,0.001c-0.203,0-0.369-0.166-0.369-0.368l0-2.617
	c0-0.203,0.166-0.369,0.369-0.369h2.617c0.203,0,0.369,0.166,0.369,0.369V49.269z M114.404,49.637l-2.615,0.001
	c-0.202,0-0.368-0.166-0.368-0.368v-2.616c0-0.202,0.166-0.368,0.369-0.368h2.613c0.203,0,0.369,0.166,0.369,0.369v2.614
	C114.772,49.471,114.606,49.637,114.404,49.637z M121.556,49.637l-2.615,0.001c-0.203,0-0.369-0.166-0.369-0.368l0.002-2.616
	c0-0.202,0.166-0.368,0.369-0.368l2.611-0.001c0.203,0,0.369,0.166,0.369,0.368l0.002,2.616
	C121.925,49.471,121.759,49.637,121.556,49.637z"/>
<path fill="#FFFFFF" d="M110.664,35.772l-7.692,4.008c-0.641,0.334-1.165,0.016-1.165-0.707v-7.822c0-0.723,0.524-1.039,1.165-0.705
	l7.692,4.012C111.305,34.892,111.305,35.438,110.664,35.772z"/>
<polygon fill="none" stroke="#FFFFFF" stroke-width="2.047" stroke-miterlimit="10" points="191.007,54.118 163.955,54.118 
	163.955,16.762 184.433,16.762 191.007,23.201 "/>
<line fill="none" stroke="#FFFFFF" stroke-width="2.047" stroke-linecap="round" stroke-miterlimit="10" x1="169.069" y1="30.618" x2="185.815" y2="30.618"/>
<line fill="none" stroke="#FFFFFF" stroke-width="2.047" stroke-linecap="round" stroke-miterlimit="10" x1="169.069" y1="37.22" x2="185.815" y2="37.22"/>
<line fill="none" stroke="#FFFFFF" stroke-width="2.047" stroke-linecap="round" stroke-miterlimit="10" x1="169.069" y1="43.736" x2="185.815" y2="43.736"/>
<polyline fill="none" stroke="#FFFFFF" stroke-width="2.047" stroke-miterlimit="10" points="183.277,16.118 183.277,23.202 
	190.968,23.202 "/>
</svg>
