<?xml version="1.0" encoding="utf-8"?>
<!-- Generator: Adobe Illustrator 14.0.0, SVG Export Plug-In  -->
<!DOCTYPE svg PUBLIC "-//W3C//DTD SVG 1.1//EN" "http://www.w3.org/Graphics/SVG/1.1/DTD/svg11.dtd" [
	<!ENTITY ns_flows "http://ns.adobe.com/Flows/1.0/">
]>
<svg version="1.1"
	 xmlns="http://www.w3.org/2000/svg" xmlns:xlink="http://www.w3.org/1999/xlink" xmlns:a="http://ns.adobe.com/AdobeSVGViewerExtensions/3.0/"
	 x="0px" y="0px" width="15px" height="13px" viewBox="0 0 15 13" enable-background="new 0 0 15 13" xml:space="preserve">
<defs>
</defs>
<path fill="#B4B4B4" d="M3.3,4.7c-0.2,0-0.4-0.1-0.5-0.2c-0.3-0.3-0.3-0.7,0-1l3.3-3.3c0.3-0.3,0.7-0.3,1,0c0.3,0.3,0.3,0.7,0,1
	L3.8,4.5C3.6,4.7,3.5,4.7,3.3,4.7z"/>
<path fill="#B4B4B4" d="M15.1,5.9v0.3c0,0.4-0.3,0.7-0.7,0.7h-0.3l-1.2,4.3c-0.2,0.8-0.9,1.3-1.6,1.3H3.8c-0.7,0-1.4-0.6-1.6-1.3
	L1,6.9H0.7C0.3,6.9,0,6.6,0,6.2V5.9c0-0.4,0.3-0.7,0.7-0.7h1.5h10.7h1.5C14.8,5.2,15.1,5.5,15.1,5.9z M5,6.9H4v4.7h1V6.9z M8.1,6.9
	h-1v4.7h1V6.9z M11.3,6.9h-1v4.7h1V6.9z"/>
<path fill="#B4B4B4" d="M11.8,4.7c-0.2,0-0.4-0.1-0.5-0.2L8,1.2c-0.3-0.3-0.3-0.7,0-1c0.3-0.3,0.7-0.3,1,0l3.3,3.3
	c0.3,0.3,0.3,0.7,0,1C12.1,4.6,11.9,4.7,11.8,4.7z"/>
</svg>
